<svg xmlns="http://www.w3.org/2000/svg" width="48" height="48" fill="none"><path fill="#232536" d="m25.03 14.446-10.99-1.619a1.815 1.815 0 0 0-1.42.379c-.39.33-.62.804-.62 1.298v20.43c0 .534.45.97 1 .97h3.251v-5.09c0-.94.78-1.697 1.75-1.697h2.501c.97 0 1.75.756 1.75 1.697v5.09h4.25v-19.78c-.002-.834-.622-1.541-1.471-1.678Zm-7.53 12.49H16a.74.74 0 0 1-.75-.728.74.74 0 0 1 .75-.727h1.5a.74.74 0 0 1 .75.727.74.74 0 0 1-.75.727Zm0-2.91H16a.74.74 0 0 1-.75-.727.74.74 0 0 1 .75-.727h1.5a.74.74 0 0 1 .75.727.74.74 0 0 1-.75.727Zm0-2.909H16a.74.74 0 0 1-.75-.727.74.74 0 0 1 .75-.727h1.5a.74.74 0 0 1 .75.727.74.74 0 0 1-.75.727Zm0-2.908H16a.74.74 0 0 1-.75-.727.74.74 0 0 1 .75-.728h1.5a.74.74 0 0 1 .75.727.74.74 0 0 1-.75.728Zm5 8.726H21a.74.74 0 0 1-.75-.727.74.74 0 0 1 .75-.727h1.5a.74.74 0 0 1 .75.727.74.74 0 0 1-.75.727Zm0-2.909H21a.74.74 0 0 1-.75-.727.74.74 0 0 1 .75-.727h1.5a.74.74 0 0 1 .75.727.74.74 0 0 1-.75.727Zm0-2.909H21a.74.74 0 0 1-.75-.727.74.74 0 0 1 .75-.727h1.5a.74.74 0 0 1 .75.727.74.74 0 0 1-.75.727Zm0-2.908H21a.74.74 0 0 1-.75-.727.74.74 0 0 1 .75-.728h1.5a.74.74 0 0 1 .75.727.74.74 0 0 1-.75.728Z"/><path fill="#FFD050" d="M34.62 23.147 27.5 21.7v14.204h6.75c.965 0 1.75-.76 1.75-1.697v-9.403c0-.802-.563-1.484-1.38-1.658Zm-2.37 9.85h-1.5a.74.74 0 0 1-.75-.728.74.74 0 0 1 .75-.727h1.5a.74.74 0 0 1 .75.727.74.74 0 0 1-.75.727Zm0-2.91h-1.5a.74.74 0 0 1-.75-.727.74.74 0 0 1 .75-.727h1.5a.74.74 0 0 1 .75.727.74.74 0 0 1-.75.727Zm0-2.909h-1.5a.74.74 0 0 1-.75-.727.74.74 0 0 1 .75-.727h1.5a.74.74 0 0 1 .75.727.74.74 0 0 1-.75.727Z"/></svg>