<svg xmlns="http://www.w3.org/2000/svg" width="48" height="48" fill="none"><g clip-path="url(#a)"><path fill="#232536" d="M18.116 27.547h-2.584c-.932 0-1.69.768-1.69 1.713v5.549c0 .58.465 1.052 1.038 1.052h3.888c.572 0 1.037-.472 1.037-1.052V29.26c0-.945-.758-1.713-1.69-1.713ZM25.7 24.176h-2.584c-.932 0-1.69.769-1.69 1.713v8.92c0 .58.465 1.052 1.038 1.052h3.888c.572 0 1.037-.472 1.037-1.052v-8.92c0-.944-.758-1.713-1.69-1.713ZM33.426 20.336h-2.584c-.932 0-1.69.769-1.69 1.713v12.76c0 .58.466 1.052 1.038 1.052h3.888c.572 0 1.038-.472 1.038-1.052v-12.76c0-.944-.758-1.713-1.69-1.713Z"/><path fill="#FFD050" d="M31.368 13.238a1.491 1.491 0 0 0-1.375-.641l-4.88.457a1.5 1.5 0 0 0-1.236.887 1.537 1.537 0 0 0 .14 1.528l.272.39-6.057 4.243-.006.004c-.43.308-.716.768-.805 1.294-.088.526.03 1.056.334 1.492a1.956 1.956 0 0 0 2.745.479l6.066-4.25.282.403a1.49 1.49 0 0 0 1.375.642 1.5 1.5 0 0 0 1.236-.887l2.049-4.513a1.536 1.536 0 0 0-.14-1.528Z"/></g><defs><clipPath id="a"><path fill="#fff" d="M13 12.59h22.956v23.271H13z"/></clipPath></defs></svg>