<svg xmlns="http://www.w3.org/2000/svg" width="48" height="48" fill="none"><g clip-path="url(#a)"><path fill="#232536" d="M27.518 19.408c0 .752.63 1.363 1.406 1.363h4.18a8.57 8.57 0 0 0-.672-2.727h-3.508c-.775 0-1.406.612-1.406 1.364Z"/><path fill="#FFD050" d="M18.377 35.86h8.438a.692.692 0 0 0 .703-.68v-3.5h1.406v-4.432l-7.031-5.113h-6.329a.692.692 0 0 0-.703.681c0 2.415 1.021 4.728 2.813 6.396v5.967c0 .377.314.682.703.682Z"/><path fill="#232536" d="M24.002 12.59a.692.692 0 0 0-.703.682v.682h-2.942a2.102 2.102 0 0 0-1.98-1.364c-1.163 0-2.11.918-2.11 2.046 0 1.127.947 2.045 2.11 2.045.915 0 1.689-.572 1.98-1.364h2.942v2.727h-7.16a2.103 2.103 0 0 0-1.98-1.363c-1.164 0-2.157.917-2.157 2.045s.993 2.046 2.156 2.046c.916 0 1.689-.572 1.98-1.364h7.16v2.045l6.75 4.909c.178.129.282.33.282.545v4.773h.703c1.163 0 2.11-.918 2.11-2.046v-3.409h2.156c.26 0 .498-.138.62-.36a.665.665 0 0 0-.035-.7l-2.13-3.03h-4.83c-1.551 0-2.813-1.223-2.813-2.727 0-1.504 1.262-2.727 2.813-2.727h2.766a9.203 9.203 0 0 0-7.688-4.09Z"/></g><defs><clipPath id="a"><path fill="#fff" d="M12 12.59h24v23.271H12z"/></clipPath></defs></svg>