<svg xmlns="http://www.w3.org/2000/svg" width="23" height="23" fill="none"><g clip-path="url(#a)"><path fill="#FFD050" d="m5.85 6.614-1.992.15a1.789 1.789 0 0 0-1.355.773l-2.298 3.37c-.233.34-.27.768-.099 1.141.17.374.521.635.938.697l1.824.274c.427-2.196 1.449-4.386 2.983-6.405ZM10.184 20.111l.282 1.77c.065.403.334.743.719.909a1.266 1.266 0 0 0 1.178-.096l3.475-2.228c.464-.298.755-.777.798-1.314l.154-1.932c-2.082 1.487-4.341 2.478-6.606 2.891ZM9.497 18.885c.063 0 .127-.005.19-.016a13.522 13.522 0 0 0 2.736-.752l-7.499-7.27a12.5 12.5 0 0 0-.775 2.652c-.063.363.063.732.33.992l4.185 4.057a1.2 1.2 0 0 0 .833.337Z"/><path fill="#232536" d="M21.166 10.479c1.835-3.44 1.903-7.075 1.807-8.78-.033-.584-.513-1.05-1.115-1.082a19.12 19.12 0 0 0-1.009-.026c-1.965 0-5.076.289-8.046 1.779-2.36 1.183-5.456 3.79-7.282 7.215a.671.671 0 0 1 .063.053l8.086 7.84c.02.02.037.04.054.06 3.533-1.77 6.221-4.77 7.442-7.06Zm-7.793-5.173c1.314-1.274 3.451-1.274 4.765 0a3.196 3.196 0 0 1 0 4.62 3.414 3.414 0 0 1-2.383.955 3.412 3.412 0 0 1-2.382-.955 3.196 3.196 0 0 1 0-4.62Z"/><path fill="#232536" d="M14.326 9.002a2.07 2.07 0 0 0 2.86 0 1.918 1.918 0 0 0 0-2.772 2.048 2.048 0 0 0-1.43-.573c-.518 0-1.036.19-1.43.573a1.918 1.918 0 0 0 0 2.772Z"/><path fill="#FFD050" d="M.688 18.97a.682.682 0 0 0 .476-.192l2.2-2.133a.64.64 0 0 0 0-.924.689.689 0 0 0-.953 0l-2.2 2.133a.64.64 0 0 0 0 .924.683.683 0 0 0 .477.191ZM5.38 17.676a.689.689 0 0 0-.953 0l-4.23 4.101a.64.64 0 0 0 0 .924.682.682 0 0 0 .477.192.682.682 0 0 0 .476-.192l4.23-4.1a.64.64 0 0 0 0-.925ZM6.442 19.63l-2.2 2.133a.64.64 0 0 0 0 .924.683.683 0 0 0 .477.192.682.682 0 0 0 .476-.192l2.2-2.133a.64.64 0 0 0 0-.924.689.689 0 0 0-.953 0Z"/></g><defs><clipPath id="a"><path fill="#fff" d="M0 .591h23v22.301H0z"/></clipPath></defs></svg>